<svg width="22" height="22" viewBox="0 0 22 22" fill="none" xmlns="http://www.w3.org/2000/svg">
<g opacity="0.6" clip-path="url(#clip0_1101_17)">
<path d="M11 11.9167C14.025 11.9167 16.5 9.44166 16.5 6.41666C16.5 3.39166 14.025 0.916656 11 0.916656C7.975 0.916656 5.5 3.39166 5.5 6.41666C5.5 9.44166 7.975 11.9167 11 11.9167ZM11 1.83332C13.5208 1.83332 15.5833 3.89582 15.5833 6.41666C15.5833 8.93749 13.5208 11 11 11C8.47917 11 6.41667 8.93749 6.41667 6.41666C6.41667 3.89582 8.47917 1.83332 11 1.83332Z" fill="white"/>
<path d="M15.125 12.8333H6.87499C3.57499 12.8333 0.916656 15.4916 0.916656 18.7916V21.0833H1.83332V18.7916C1.83332 15.9958 4.07916 13.75 6.87499 13.75H15.125C17.9208 13.75 20.1667 15.9958 20.1667 18.7916V21.0833H21.0833V18.7916C21.0833 15.4916 18.425 12.8333 15.125 12.8333Z" fill="white"/>
</g>
<defs>
<clipPath id="clip0_1101_17">
<rect width="22" height="22" fill="white"/>
</clipPath>
</defs>
</svg>
