<svg width="23" height="14" viewBox="0 0 23 14" fill="none" xmlns="http://www.w3.org/2000/svg">
<path d="M21.3625 1.52634H1.63747C1.42652 1.52634 1.22422 1.45148 1.07506 1.31823C0.925899 1.18498 0.842102 1.00426 0.842102 0.815812C0.842102 0.627369 0.925899 0.446643 1.07506 0.313393C1.22422 0.180144 1.42652 0.105286 1.63747 0.105286H21.3625C21.5735 0.105286 21.7758 0.180144 21.9249 0.313393C22.0741 0.446643 22.1579 0.627369 22.1579 0.815812C22.1579 1.00426 22.0741 1.18498 21.9249 1.31823C21.7758 1.45148 21.5735 1.52634 21.3625 1.52634Z" fill="white"/>
<path d="M21.3625 7.92108H1.63747C1.42652 7.92108 1.22422 7.84622 1.07506 7.71297C0.925899 7.57973 0.842102 7.399 0.842102 7.21056C0.842102 7.02211 0.925899 6.84139 1.07506 6.70814C1.22422 6.57489 1.42652 6.50003 1.63747 6.50003H21.3625C21.5735 6.50003 21.7758 6.57489 21.9249 6.70814C22.0741 6.84139 22.1579 7.02211 22.1579 7.21056C22.1579 7.399 22.0741 7.57973 21.9249 7.71297C21.7758 7.84622 21.5735 7.92108 21.3625 7.92108Z" fill="white"/>
<path d="M21.3625 13.6053H1.63747C1.42652 13.6053 1.22422 13.5304 1.07506 13.3972C0.925899 13.2639 0.842102 13.0832 0.842102 12.8948C0.842102 12.7063 0.925899 12.5256 1.07506 12.3923C1.22422 12.2591 1.42652 12.1842 1.63747 12.1842H21.3625C21.5735 12.1842 21.7758 12.2591 21.9249 12.3923C22.0741 12.5256 22.1579 12.7063 22.1579 12.8948C22.1579 13.0832 22.0741 13.2639 21.9249 13.3972C21.7758 13.5304 21.5735 13.6053 21.3625 13.6053Z" fill="white"/>
</svg>
