<svg width="21" height="21" viewBox="0 0 21 21" fill="none" xmlns="http://www.w3.org/2000/svg">
<path d="M16.205 20.5866C15.954 20.5866 15.7099 20.5105 15.5002 20.3653C15.3912 20.2879 11.5378 17.4816 10.5 16.7258L5.50835 20.3592C5.28918 20.5105 5.04555 20.5866 4.79496 20.5866C4.11405 20.5866 3.56013 20.0306 3.56013 19.3469C3.56013 19.2121 3.58418 19.0717 3.63164 18.9293L3.63965 18.9071C3.69302 18.7574 4.95042 14.9002 5.53978 13.0905C3.99107 11.959 0.685262 9.54508 0.550473 9.45184C0.215293 9.21686 0.0180664 8.83696 0.0180664 8.43217C0.0180664 7.73502 0.568191 7.16781 1.24467 7.16781H7.43484L9.31914 1.34805C9.46406 0.832093 9.95153 0.460632 10.5002 0.460632C11.0495 0.460632 11.5369 0.832304 11.6861 1.36408L13.5733 7.16781H19.7643C20.4362 7.16781 20.9825 7.73291 20.9825 8.42795C20.9825 8.83548 20.7851 9.21686 20.4547 9.44847C20.3132 9.54613 17.0082 11.9593 15.4602 13.0903C16.0502 14.9014 17.3088 18.7618 17.3639 18.9166C17.4158 19.07 17.44 19.2111 17.44 19.3471C17.44 20.0308 16.8859 20.5866 16.205 20.5866ZM10.5 15.6819L10.7485 15.8624C12.5195 17.1525 15.8934 19.6095 15.9848 19.6745C16.0478 19.718 16.1259 19.7426 16.205 19.7426C16.4208 19.7426 16.5963 19.565 16.5963 19.3467C16.5963 19.3026 16.5868 19.2524 16.5682 19.1972C16.537 19.1189 15.1554 14.8786 14.563 13.0601L14.4683 12.7695L14.7153 12.5893C15.2397 12.2058 19.8439 8.84223 19.977 8.7528C20.0757 8.6834 20.1385 8.56021 20.1385 8.42774C20.1385 8.20225 19.9671 8.01135 19.7641 8.01135H12.9601L10.8784 1.60834C10.8252 1.41977 10.675 1.30438 10.5 1.30438C10.3251 1.30438 10.1749 1.42019 10.1264 1.59252L8.04867 8.01156H1.24467C1.03711 8.01156 0.861816 8.20436 0.861816 8.43217C0.861816 8.56232 0.924676 8.68382 1.02993 8.75765C1.1565 8.84266 5.76021 12.2063 6.2846 12.5898L6.5316 12.7699L6.43689 13.0608C5.86399 14.8208 4.55175 18.8481 4.43214 19.1961H4.43236C4.41358 19.2524 4.40409 19.3033 4.40409 19.3473C4.40409 19.5657 4.57938 19.7433 4.79517 19.7433C4.87532 19.7433 4.95126 19.7192 5.02108 19.6711L10.5 15.6819Z" fill="white"/>
</svg>
